<svg width="21" height="20" viewBox="0 0 21 20" fill="none" xmlns="http://www.w3.org/2000/svg">
<path d="M18.5645 5H13.4077V2C13.4077 0.9 12.4794 0 11.3449 0H9.28223C8.14774 0 7.21951 0.9 7.21951 2V5H2.06272C0.928223 5 0 5.9 0 7V18C0 19.1 0.928223 20 2.06272 20H18.5645C19.699 20 20.6272 19.1 20.6272 18V7C20.6272 5.9 19.699 5 18.5645 5ZM7.21951 10C8.07554 10 8.76655 10.67 8.76655 11.5C8.76655 12.33 8.07554 13 7.21951 13C6.36349 13 5.67247 12.33 5.67247 11.5C5.67247 10.67 6.36349 10 7.21951 10ZM10.3136 16H4.12544V15.57C4.12544 14.97 4.49672 14.42 5.07429 14.18C5.73436 13.9 6.45631 13.75 7.21951 13.75C7.98272 13.75 8.70467 13.9 9.36474 14.18C9.93199 14.42 10.3136 14.96 10.3136 15.57V16ZM11.3449 7H9.28223V2H11.3449V7ZM15.7282 14.5H13.1498C12.727 14.5 12.3763 14.16 12.3763 13.75C12.3763 13.34 12.727 13 13.1498 13H15.7282C16.1511 13 16.5017 13.34 16.5017 13.75C16.5017 14.16 16.1511 14.5 15.7282 14.5ZM15.7282 11.5H13.1498C12.727 11.5 12.3763 11.16 12.3763 10.75C12.3763 10.34 12.727 10 13.1498 10H15.7282C16.1511 10 16.5017 10.34 16.5017 10.75C16.5017 11.16 16.1511 11.5 15.7282 11.5Z" fill="url(#paint0_linear_57_6)"/>
<defs>
<linearGradient id="paint0_linear_57_6" x1="10.3136" y1="0" x2="10.3136" y2="20" gradientUnits="userSpaceOnUse">
<stop stop-color="#4061CB"/>
<stop offset="1" stop-color="#0D32AA"/>
</linearGradient>
</defs>
</svg>
