<svg width="21" height="20" viewBox="0 0 21 20" fill="none" xmlns="http://www.w3.org/2000/svg">
<path d="M18.6272 5H13.4704V2C13.4704 0.9 12.5422 0 11.4077 0H9.34497C8.21048 0 7.28226 0.9 7.28226 2V5H2.12546C0.990967 5 0.0627441 5.9 0.0627441 7V18C0.0627441 19.1 0.990967 20 2.12546 20H18.6272C19.7617 20 20.6899 19.1 20.6899 18V7C20.6899 5.9 19.7617 5 18.6272 5ZM7.28226 10C8.13828 10 8.8293 10.67 8.8293 11.5C8.8293 12.33 8.13828 13 7.28226 13C6.42623 13 5.73522 12.33 5.73522 11.5C5.73522 10.67 6.42623 10 7.28226 10ZM10.3763 16H4.18818V15.57C4.18818 14.97 4.55947 14.42 5.13703 14.18C5.7971 13.9 6.51905 13.75 7.28226 13.75C8.04546 13.75 8.76741 13.9 9.42748 14.18C9.99473 14.42 10.3763 14.96 10.3763 15.57V16ZM11.4077 7H9.34497V2H11.4077V7ZM15.791 14.5H13.2126C12.7897 14.5 12.4391 14.16 12.4391 13.75C12.4391 13.34 12.7897 13 13.2126 13H15.791C16.2138 13 16.5645 13.34 16.5645 13.75C16.5645 14.16 16.2138 14.5 15.791 14.5ZM15.791 11.5H13.2126C12.7897 11.5 12.4391 11.16 12.4391 10.75C12.4391 10.34 12.7897 10 13.2126 10H15.791C16.2138 10 16.5645 10.34 16.5645 10.75C16.5645 11.16 16.2138 11.5 15.791 11.5Z" fill="url(#paint0_linear_56_2)"/>
<defs>
<linearGradient id="paint0_linear_56_2" x1="10.3763" y1="0" x2="10.3763" y2="20" gradientUnits="userSpaceOnUse">
<stop stop-color="#4061CB"/>
<stop offset="1" stop-color="#0D32AA"/>
</linearGradient>
</defs>
</svg>
