<svg width="329" height="47" viewBox="0 0 329 47" fill="none" xmlns="http://www.w3.org/2000/svg">
<path d="M20.528 34.32C21.648 34.96 22.72 35.504 23.744 35.952C24.8 36.368 25.872 36.576 26.96 36.576C28.08 36.576 29.088 36.448 29.984 36.192C30.688 37.184 31.216 38.16 31.568 39.12C30.96 40.4 30.016 41.52 28.736 42.48C27.456 43.472 26.016 43.968 24.416 43.968C22.816 43.968 21.248 43.36 19.712 42.144C18.176 40.96 16.448 39.312 14.528 37.2L12.464 34.848C10.672 36.256 8.79995 36.96 6.84795 36.96C4.89595 36.96 3.39195 36.496 2.33595 35.568C1.27995 34.608 0.751953 33.472 0.751953 32.16C0.751953 30.848 1.26395 29.728 2.28795 28.8C3.31195 27.872 4.46395 27.408 5.74395 27.408C7.05595 27.408 8.28795 27.584 9.43995 27.936C9.91995 25.888 10.256 23.6 10.448 21.072C5.96795 20.048 3.72795 17.424 3.72795 13.2L4.01595 10.608C4.33595 10.576 4.94395 10.56 5.83995 10.56C6.73595 10.56 7.59995 10.768 8.43195 11.184C8.23995 12.048 8.14395 12.72 8.14395 13.2C8.14395 15.728 8.99195 17.136 10.688 17.424C10.816 14.8 10.928 12.992 11.024 12C11.376 8.54401 12.576 6 14.624 4.368C16.704 2.736 19.104 1.92 21.824 1.92C24.576 1.92 26.672 2.592 28.112 3.936C29.552 5.248 30.272 7.00801 30.272 9.21601C30.272 11.392 29.056 13.68 26.624 16.08C24.224 18.48 21.248 20.16 17.696 21.12C17.024 24.192 16.192 27.408 15.2 30.768C17.664 32.464 19.44 33.648 20.528 34.32ZM25.52 9.072C25.52 8.27201 25.344 7.63201 24.992 7.15201C24.672 6.672 24.224 6.432 23.648 6.432C22.56 6.432 21.696 7.008 21.056 8.16C20.416 9.28001 19.824 11.072 19.28 13.536L18.56 16.992C20.832 16.288 22.56 15.184 23.744 13.68C24.928 12.144 25.52 10.608 25.52 9.072ZM8.47995 30.912C7.74395 30.368 7.07195 30.096 6.46395 30.096C5.85595 30.096 5.39195 30.256 5.07195 30.576C4.75195 30.896 4.59195 31.232 4.59195 31.584C4.59195 32.416 5.00795 32.832 5.83995 32.832C6.70395 32.832 7.58395 32.192 8.47995 30.912Z" fill="#0D0D0D"/>
<path d="M27.2412 27.312C27.2412 23.344 28.4412 20.256 30.8412 18.048C33.2732 15.84 36.2652 14.736 39.8172 14.736C42.2812 14.736 44.2492 15.28 45.7212 16.368C47.2252 17.424 47.9772 18.848 47.9772 20.64C47.9772 21.952 47.5772 23.12 46.7772 24.144C45.9772 25.168 45.0012 25.952 43.8492 26.496C41.4172 27.584 39.3052 28.24 37.5132 28.464L36.3132 28.608C36.6652 30.72 37.7212 31.776 39.4812 31.776C40.2492 31.776 41.0972 31.616 42.0252 31.296C42.9532 30.944 43.6892 30.592 44.2332 30.24L45.0492 29.76L46.5852 31.824C46.5852 31.824 46.4092 32 46.0572 32.352C45.8652 32.544 45.4012 32.928 44.6652 33.504C43.9612 34.048 43.2092 34.528 42.4092 34.944C41.6412 35.36 40.6492 35.728 39.4332 36.048C38.2172 36.4 37.0012 36.576 35.7852 36.576C33.0652 36.576 30.9532 35.792 29.4492 34.224C27.9772 32.624 27.2412 30.32 27.2412 27.312ZM36.1212 25.44C37.0492 25.312 37.9772 24.56 38.9052 23.184C39.8332 21.776 40.2972 20.608 40.2972 19.68C40.2972 18.72 40.0252 18.24 39.4812 18.24C38.6812 18.24 37.9452 18.864 37.2732 20.112C36.6012 21.36 36.2172 23.136 36.1212 25.44Z" fill="#0D0D0D"/>
<path d="M56.2115 36.576C53.7155 36.576 51.7475 35.792 50.3075 34.224C48.8675 32.624 48.1475 30.384 48.1475 27.504C48.1475 23.984 49.1875 21.008 51.2675 18.576C53.3475 16.112 56.0835 14.88 59.4755 14.88L61.6355 15.072C62.4035 14.848 63.1235 14.736 63.7955 14.736C65.3955 14.736 66.5315 15.28 67.2035 16.368C67.9075 17.456 68.3075 19.008 68.4035 21.024C69.7475 20.96 71.0275 20.752 72.2435 20.4L72.9155 20.208C73.1395 20.432 73.2995 21.104 73.3955 22.224L73.4435 22.752C72.0035 23.488 70.2435 24.064 68.1635 24.48C67.4594 27.872 66.0675 30.736 63.9875 33.072C61.9075 35.408 59.3155 36.576 56.2115 36.576ZM57.1715 27.312C57.1715 30.288 57.9235 31.776 59.4275 31.776C60.4835 31.776 61.5555 31.104 62.6435 29.76C63.7635 28.416 64.5315 26.784 64.9475 24.864C61.6835 24.864 60.0515 23.296 60.0515 20.16C60.0515 19.616 60.0995 19.056 60.1955 18.48C59.8755 18.48 59.6355 18.528 59.4755 18.624C58.9315 19.2 58.4035 20.368 57.8915 22.128C57.4115 23.856 57.1715 25.584 57.1715 27.312Z" fill="#0D0D0D"/>
<path d="M70.4022 36.288H69.5862C69.5862 34.304 70.0342 31.296 70.9302 27.264C71.8582 23.232 72.3222 20.912 72.3222 20.304C72.3222 19.696 72.1782 19.104 71.8902 18.528C71.6022 17.952 71.3142 17.52 71.0262 17.232L70.5942 16.8L70.6902 16.08C72.5782 15.472 75.8742 15.168 80.5782 15.168C80.8982 15.904 81.1222 16.672 81.2502 17.472C84.1622 15.68 86.6102 14.784 88.5942 14.784C89.9382 14.784 90.9942 15.232 91.7622 16.128C92.5302 16.992 92.9142 18.048 92.9142 19.296C92.9142 20.512 92.5622 22.48 91.8582 25.2C91.1542 27.92 90.8022 29.696 90.8022 30.528C90.8022 31.328 90.9142 31.728 91.1382 31.728L93.6822 31.056L94.5462 33.456C93.5222 34.224 92.1782 34.944 90.5142 35.616C88.8822 36.256 87.3782 36.576 86.0022 36.576C83.2822 36.576 81.9222 35.168 81.9222 32.352C81.9222 31.136 82.2582 29.152 82.9302 26.4C83.6022 23.648 83.9382 21.936 83.9382 21.264C83.9382 20.56 83.7142 20.208 83.2662 20.208C82.6902 20.208 81.9222 20.528 80.9622 21.168C80.8342 21.744 80.5142 23.136 80.0022 25.344C78.9782 29.984 78.4662 33.328 78.4662 35.376C76.8982 35.984 74.2102 36.288 70.4022 36.288Z" fill="#0D0D0D"/>
<path d="M122.622 34.32C123.742 34.96 124.814 35.504 125.838 35.952C126.894 36.368 127.966 36.576 129.054 36.576C130.174 36.576 131.182 36.448 132.078 36.192C132.782 37.184 133.31 38.16 133.662 39.12C133.054 40.4 132.11 41.52 130.83 42.48C129.55 43.472 128.11 43.968 126.51 43.968C124.91 43.968 123.342 43.36 121.806 42.144C120.27 40.96 118.542 39.312 116.622 37.2L114.558 34.848C112.766 36.256 110.894 36.96 108.942 36.96C106.99 36.96 105.486 36.496 104.43 35.568C103.374 34.608 102.846 33.472 102.846 32.16C102.846 30.848 103.358 29.728 104.382 28.8C105.406 27.872 106.558 27.408 107.838 27.408C109.15 27.408 110.382 27.584 111.534 27.936C112.014 25.888 112.35 23.6 112.542 21.072C108.062 20.048 105.822 17.424 105.822 13.2L106.11 10.608C106.43 10.576 107.038 10.56 107.934 10.56C108.83 10.56 109.694 10.768 110.526 11.184C110.334 12.048 110.238 12.72 110.238 13.2C110.238 15.728 111.086 17.136 112.782 17.424C112.91 14.8 113.022 12.992 113.118 12C113.47 8.54401 114.67 6 116.718 4.368C118.798 2.736 121.198 1.92 123.918 1.92C126.67 1.92 128.766 2.592 130.206 3.936C131.646 5.248 132.366 7.00801 132.366 9.21601C132.366 11.392 131.15 13.68 128.718 16.08C126.318 18.48 123.342 20.16 119.79 21.12C119.118 24.192 118.286 27.408 117.294 30.768C119.758 32.464 121.534 33.648 122.622 34.32ZM127.614 9.072C127.614 8.27201 127.438 7.63201 127.086 7.15201C126.766 6.672 126.318 6.432 125.742 6.432C124.654 6.432 123.79 7.008 123.15 8.16C122.51 9.28001 121.918 11.072 121.374 13.536L120.654 16.992C122.926 16.288 124.654 15.184 125.838 13.68C127.022 12.144 127.614 10.608 127.614 9.072ZM110.574 30.912C109.838 30.368 109.166 30.096 108.558 30.096C107.95 30.096 107.486 30.256 107.166 30.576C106.846 30.896 106.686 31.232 106.686 31.584C106.686 32.416 107.102 32.832 107.934 32.832C108.798 32.832 109.678 32.192 110.574 30.912Z" fill="#0D0D0D"/>
<path d="M137.399 36.576C134.903 36.576 132.935 35.792 131.495 34.224C130.055 32.624 129.335 30.384 129.335 27.504C129.335 23.984 130.375 21.008 132.455 18.576C134.535 16.112 137.271 14.88 140.663 14.88L142.823 15.072C143.591 14.848 144.311 14.736 144.983 14.736C146.583 14.736 147.719 15.28 148.391 16.368C149.095 17.456 149.495 19.008 149.591 21.024C150.935 20.96 152.215 20.752 153.431 20.4L154.103 20.208C154.327 20.432 154.487 21.104 154.583 22.224L154.631 22.752C153.191 23.488 151.431 24.064 149.351 24.48C148.647 27.872 147.255 30.736 145.175 33.072C143.095 35.408 140.503 36.576 137.399 36.576ZM138.359 27.312C138.359 30.288 139.111 31.776 140.615 31.776C141.671 31.776 142.743 31.104 143.831 29.76C144.951 28.416 145.719 26.784 146.135 24.864C142.871 24.864 141.239 23.296 141.239 20.16C141.239 19.616 141.287 19.056 141.383 18.48C141.063 18.48 140.823 18.528 140.663 18.624C140.119 19.2 139.591 20.368 139.079 22.128C138.599 23.856 138.359 25.584 138.359 27.312Z" fill="#0D0D0D"/>
<path d="M149.701 46.752C149.445 46.336 149.317 45.456 149.317 44.112C149.317 42.768 149.925 39.12 151.141 33.168C152.389 27.216 153.013 23.488 153.013 21.984C153.013 20.48 152.869 19.344 152.581 18.576C152.293 17.776 152.005 17.264 151.717 17.04L151.285 16.704L151.381 15.984C153.301 15.376 156.549 15.072 161.125 15.072C161.381 15.552 161.589 16.176 161.749 16.944C163.797 15.472 165.733 14.736 167.557 14.736C169.381 14.736 170.869 15.44 172.021 16.848C173.205 18.224 173.797 20.576 173.797 23.904C173.797 27.232 172.917 30.176 171.157 32.736C169.429 35.296 166.885 36.576 163.525 36.576C162.053 36.576 160.613 36.288 159.205 35.712C158.469 39.328 158.101 42.512 158.101 45.264C155.797 46.096 152.997 46.592 149.701 46.752ZM161.317 32.544C162.181 32.544 162.917 31.904 163.525 30.624C164.613 28.384 165.157 25.664 165.157 22.464C165.157 20.576 164.693 19.632 163.765 19.632C163.285 19.632 162.645 19.808 161.845 20.16C161.653 22.848 161.013 26.896 159.925 32.304C160.469 32.464 160.933 32.544 161.317 32.544Z" fill="#0D0D0D"/>
<path d="M175.319 27.312C175.319 23.344 176.519 20.256 178.919 18.048C181.351 15.84 184.343 14.736 187.895 14.736C190.359 14.736 192.327 15.28 193.799 16.368C195.303 17.424 196.055 18.848 196.055 20.64C196.055 21.952 195.655 23.12 194.855 24.144C194.055 25.168 193.079 25.952 191.927 26.496C189.495 27.584 187.383 28.24 185.591 28.464L184.391 28.608C184.743 30.72 185.799 31.776 187.559 31.776C188.327 31.776 189.175 31.616 190.103 31.296C191.031 30.944 191.767 30.592 192.311 30.24L193.127 29.76L194.663 31.824C194.663 31.824 194.487 32 194.135 32.352C193.943 32.544 193.479 32.928 192.743 33.504C192.039 34.048 191.287 34.528 190.487 34.944C189.719 35.36 188.727 35.728 187.511 36.048C186.295 36.4 185.079 36.576 183.863 36.576C181.143 36.576 179.031 35.792 177.527 34.224C176.055 32.624 175.319 30.32 175.319 27.312ZM184.199 25.44C185.127 25.312 186.055 24.56 186.983 23.184C187.911 21.776 188.375 20.608 188.375 19.68C188.375 18.72 188.103 18.24 187.559 18.24C186.759 18.24 186.023 18.864 185.351 20.112C184.679 21.36 184.295 23.136 184.199 25.44Z" fill="#0D0D0D"/>
<path d="M213.398 29.52C213.398 31.504 212.47 33.184 210.614 34.56C208.79 35.904 206.646 36.576 204.182 36.576C201.718 36.576 199.686 36.16 198.086 35.328C196.518 34.496 195.734 33.712 195.734 32.976C195.734 32.208 196.214 31.248 197.174 30.096C198.166 28.912 199.174 28.224 200.198 28.032C201.67 28.832 202.998 30.608 204.182 33.36C205.11 33.36 205.574 33.056 205.574 32.448C205.574 32 205.446 31.584 205.19 31.2C204.934 30.816 204.742 30.512 204.614 30.288C204.486 30.064 204.262 29.76 203.942 29.376C203.622 28.96 203.382 28.656 203.222 28.464C202.422 27.504 201.702 26.624 201.062 25.824C199.526 23.904 198.758 22.224 198.758 20.784C198.758 19.312 199.222 18.112 200.15 17.184C201.75 15.552 204.102 14.736 207.206 14.736C209.158 14.736 210.71 15.12 211.862 15.888C213.014 16.624 213.59 17.744 213.59 19.248C213.59 20.72 212.71 22.416 210.95 24.336C212.582 26.224 213.398 27.952 213.398 29.52ZM210.182 20.736C210.566 20.128 210.758 19.584 210.758 19.104C210.758 18.624 210.55 18.256 210.134 18C209.718 17.744 209.222 17.616 208.646 17.616C208.07 17.616 207.622 17.76 207.302 18.048C207.014 18.304 206.87 18.656 206.87 19.104C206.87 19.552 207.558 20.544 208.934 22.08C209.382 21.76 209.798 21.312 210.182 20.736Z" fill="#0D0D0D"/>
<path d="M238.308 36.96C236.26 36.96 234.548 36.48 233.172 35.52C231.828 34.528 231.156 33.184 231.156 31.488C231.156 29.76 231.796 28.336 233.076 27.216C234.388 26.096 236.02 25.248 237.972 24.672C237.3 23.488 236.1 21.584 234.372 18.96C233.188 19.184 232.148 19.296 231.252 19.296C228.372 19.296 226.116 18.576 224.484 17.136C222.852 15.696 222.036 13.76 222.036 11.328C222.036 10.048 222.212 8.88001 222.564 7.82401L222.756 7.248C224.484 7.28 225.812 7.472 226.74 7.82401C226.196 9.00801 225.924 10.24 225.924 11.52C225.924 12.768 226.42 13.824 227.412 14.688C228.436 15.52 229.652 15.936 231.06 15.936C231.54 15.936 232.02 15.888 232.5 15.792C231.188 13.392 230.532 11.36 230.532 9.696C230.532 7.29601 231.588 5.40801 233.7 4.03201C235.844 2.62401 238.26 1.92 240.948 1.92C243.668 1.92 245.764 2.49601 247.236 3.64801C248.708 4.768 249.444 6.176 249.444 7.87201C249.444 9.53601 248.836 11.088 247.62 12.528C246.404 13.936 245.044 15.088 243.54 15.984C245.492 18.576 246.916 21.248 247.812 24C250.084 24.096 252.932 24.656 256.356 25.68C256.26 27.184 255.652 28.704 254.532 30.24C252.9 29.024 250.884 28.224 248.484 27.84C248.452 30.336 247.412 32.48 245.364 34.272C243.316 36.064 240.964 36.96 238.308 36.96ZM241.524 12.912C242.516 12.464 243.332 11.792 243.972 10.896C244.644 9.96801 244.98 9.072 244.98 8.208C244.98 7.34401 244.692 6.70401 244.116 6.28801C243.54 5.84001 242.804 5.61601 241.908 5.61601C241.012 5.61601 240.276 5.84001 239.7 6.28801C239.124 6.70401 238.836 7.26401 238.836 7.968C238.836 9.02401 239.732 10.672 241.524 12.912ZM237.396 32.928C238.036 32.928 238.548 32.576 238.932 31.872C239.348 31.168 239.556 30.464 239.556 29.76C239.556 29.056 239.46 28.32 239.268 27.552C236.676 28 235.38 29.04 235.38 30.672C235.38 31.28 235.556 31.808 235.908 32.256C236.292 32.704 236.788 32.928 237.396 32.928Z" fill="#0D0D0D"/>
<path d="M265.834 18C265.834 19.408 265.434 21.6 264.634 24.576C263.834 27.52 263.434 29.44 263.434 30.336C263.434 31.232 263.61 31.68 263.962 31.68C264.314 31.68 264.954 31.52 265.882 31.2L266.314 31.008L267.178 33.408C266.09 34.24 264.73 34.976 263.098 35.616C261.498 36.256 260.042 36.576 258.73 36.576C257.418 36.576 256.378 36.208 255.61 35.472C254.874 34.736 254.506 33.68 254.506 32.304C254.506 30.896 254.89 28.768 255.658 25.92C256.458 23.04 256.858 21.216 256.858 20.448C256.858 19.264 256.442 18.144 255.61 17.088L255.226 16.56L255.37 15.744C257.034 15.232 260.266 14.976 265.066 14.976C265.578 15.552 265.834 16.56 265.834 18ZM262.234 11.232C260.794 11.232 259.658 10.848 258.826 10.08C258.026 9.31201 257.626 8.33601 257.626 7.15201C257.626 5.936 258.122 4.928 259.114 4.12801C260.138 3.296 261.37 2.88 262.81 2.88C264.25 2.88 265.37 3.216 266.17 3.88801C266.97 4.56001 267.37 5.50401 267.37 6.72001C267.37 7.93601 266.874 8.99201 265.882 9.88801C264.922 10.784 263.706 11.232 262.234 11.232Z" fill="#0D0D0D"/>
<path d="M281.712 33.312C280.688 34.208 279.344 34.976 277.68 35.616C276.016 36.256 274.496 36.576 273.12 36.576C271.776 36.576 270.672 36.192 269.808 35.424C268.944 34.624 268.512 33.488 268.512 32.016C268.512 30.544 269.312 26.448 270.912 19.728C272.544 12.976 273.36 7.96801 273.36 4.70401C273.36 4.00001 273.264 3.10401 273.072 2.01601C276.08 1.18401 278.992 0.768005 281.808 0.768005C282.096 1.28 282.24 2.112 282.24 3.264C282.24 5.44001 281.424 10.192 279.792 17.52C278.192 24.816 277.392 29.024 277.392 30.144C277.392 31.264 277.584 31.824 277.968 31.824C278.288 31.824 278.976 31.616 280.032 31.2L280.56 30.96L281.712 33.312Z" fill="#0D0D0D"/>
<path d="M283.914 30.528L284.538 20.496C284.538 19.632 284.41 18.96 284.154 18.48C283.93 17.968 283.45 17.264 282.714 16.368L282.906 15.648C285.37 15.072 287.418 14.784 289.05 14.784C290.682 14.784 291.818 15.168 292.458 15.936C293.13 16.672 293.466 17.728 293.466 19.104C293.466 20.48 293.21 22.496 292.698 25.152C292.218 27.808 291.978 29.568 291.978 30.432C291.978 31.264 292.218 31.68 292.698 31.68C293.466 31.68 294.458 30.96 295.674 29.52C296.922 28.048 297.738 26.608 298.122 25.2L294.57 21.792C294.698 20.448 294.986 19.2 295.434 18.048C295.882 16.864 296.282 16.032 296.634 15.552L297.21 14.784C301.082 14.784 303.018 16.384 303.018 19.584C303.018 21.664 302.378 24.016 301.098 26.64C299.85 29.232 298.09 31.536 295.818 33.552C293.546 35.568 291.194 36.576 288.762 36.576C285.53 36.576 283.914 34.56 283.914 30.528Z" fill="#0D0D0D"/>
<path d="M326.911 16.56C326.239 18.64 325.663 21.12 325.183 24C324.703 26.848 324.463 28.848 324.463 30C324.463 31.12 324.639 31.68 324.991 31.68L327.391 31.008L328.255 33.408C327.231 34.208 325.919 34.944 324.319 35.616C322.751 36.256 321.359 36.576 320.143 36.576C318.063 36.576 316.751 35.68 316.207 33.888C313.679 35.68 311.439 36.576 309.487 36.576C307.567 36.576 306.079 35.872 305.023 34.464C303.967 33.056 303.439 31.04 303.439 28.416C303.439 24.8 304.367 21.616 306.223 18.864C308.079 16.112 310.527 14.736 313.567 14.736C315.231 14.736 316.927 15.2 318.655 16.128C318.911 15.552 319.119 15.136 319.279 14.88C321.583 14.88 324.127 15.44 326.911 16.56ZM312.463 27.84C312.463 29.44 312.575 30.448 312.799 30.864C313.023 31.28 313.439 31.488 314.047 31.488C314.655 31.488 315.247 31.248 315.823 30.768C315.951 27.056 316.559 23.168 317.647 19.104C317.167 18.816 316.607 18.672 315.967 18.672C315.359 18.672 314.799 19.024 314.287 19.728C313.807 20.432 313.439 21.312 313.183 22.368C312.703 24.384 312.463 26.208 312.463 27.84Z" fill="#0D0D0D"/>
</svg>
